<svg xmlns="http://www.w3.org/2000/svg" viewBox="0 0 600 600">
  <defs>
    <linearGradient id="g" x1="0" y1="0" x2="1" y2="1">
      <stop offset="0%" stop-color="#1F3B2C"/>
      <stop offset="100%" stop-color="#B08D57"/>
    </linearGradient>
  </defs>
  <rect width="600" height="600" fill="#1F3B2C"/>
  <rect width="600" height="600" fill="url(#g)" opacity="0.25"/>
  <path d="M300 120 C 380 120 440 180 440 260 C 440 320 400 350 360 350 C 330 350 312 330 320 305 C 326 286 348 280 358 296 C 364 306 354 316 346 310 M300 120 C 220 120 160 180 160 260 C 160 400 260 460 300 520 C 340 460 440 400 440 260"
        stroke="#FBF5E9" stroke-width="4" fill="none" opacity="0.5"/>
  <text x="300" y="565" font-family="Georgia, serif" font-size="30" fill="#FBF5E9" text-anchor="middle" opacity="0.9">Mehndi Cones</text>
</svg>